<svg width="54" height="200" viewBox="0 0 54 172" fill="none" xmlns="http://www.w3.org/2000/svg">
<path d="M2.16506 87.8525C0.969332 87.1622 0.559644 85.6332 1.25 84.4375L48.75 2.16507C49.4404 0.969336 50.9693 0.55965 52.1651 1.25001V1.25001C53.3608 1.94036 53.7705 3.46934 53.0801 4.66507L5.58013 86.9375C4.88977 88.1332 3.36079 88.5429 2.16506 87.8525V87.8525Z" fill="white"/>
<path d="M52.1651 170.853C50.9693 171.543 49.4404 171.133 48.75 169.937L1.25002 87.6651C0.559664 86.4693 0.969352 84.9404 2.16508 84.25V84.25C3.36081 83.5596 4.88979 83.9693 5.58015 85.1651L53.0801 167.437C53.7705 168.633 53.3608 170.162 52.1651 170.853V170.853Z" fill="white"/>
</svg>
