<svg width="55" height="173" viewBox="0 0 55 173" fill="none" xmlns="http://www.w3.org/2000/svg">
<path d="M52.165 84.25C53.3608 84.9404 53.7705 86.4693 53.0801 87.6651L5.58011 169.937C4.88976 171.133 3.36078 171.543 2.16505 170.853V170.853C0.96932 170.162 0.559632 168.633 1.24999 167.437L48.75 85.1651C49.4403 83.9693 50.9693 83.5597 52.165 84.25V84.25Z" fill="white"/>
<path d="M2.16505 1.25005C3.36078 0.55969 4.88975 0.969377 5.58011 2.16511L53.0801 84.4375C53.7704 85.6332 53.3608 87.1622 52.165 87.8525V87.8525C50.9693 88.5429 49.4403 88.1332 48.75 86.9375L1.24998 4.66511C0.559626 3.46937 0.969315 1.9404 2.16505 1.25005V1.25005Z" fill="white"/>
</svg>
